<svg width="500" height="375" viewBox="0 0 500 375" fill="none" xmlns="http://www.w3.org/2000/svg">
<path fill-rule="evenodd" clip-rule="evenodd" d="M231.228 184.144C214.162 176.825 202.183 165.041 205.021 145.318C218.15 154.873 232.584 154.4 233.493 182.202C229.05 179.388 220.928 170.701 217.871 165.112C219.205 170.562 226.922 179.683 231.228 184.144Z" fill="#00A650"/>
<path fill-rule="evenodd" clip-rule="evenodd" d="M252.498 187.978C273.061 187.53 296.611 176.601 295.754 148.072C281.078 158.168 254.728 154.136 250.981 184.776C256.714 183.642 268.665 177.604 274.128 172.734C270.491 178.231 258.775 184.939 252.498 187.978Z" fill="#00A650"/>
<path fill-rule="evenodd" clip-rule="evenodd" d="M286.89 58C218.08 84.9232 204.435 122.958 237.689 151.348C242.261 132.466 252.763 117.441 260.93 110.241C238.519 141.915 231.516 173.024 245.656 187.836C241.837 177.959 241.208 167.743 246.697 159.4C250.764 153.217 254.308 154.868 261.221 152.726C306.581 138.664 275.477 88.2151 286.89 58Z" fill="#99D420"/>
<path d="M301.067 317H198.262C195.663 317 193.474 315.059 193.163 312.479L182.796 226.492H317.058L306.162 312.51C305.837 315.076 303.654 317 301.067 317Z" fill="url(#paint0_linear_1_5)"/>
<path d="M175 200.816H325.381L321.732 216.128C321.181 218.441 319.114 220.073 316.736 220.073H183.398C180.991 220.073 178.907 218.401 178.385 216.051L175 200.816Z" fill="#4DBD38"/>
<defs>
<linearGradient id="paint0_linear_1_5" x1="249.927" y1="226.492" x2="249.927" y2="317" gradientUnits="userSpaceOnUse">
<stop offset="0.13" stop-color="#4DBD38"/>
<stop offset="0.593778" stop-color="#00A650"/>
</linearGradient>
</defs>
</svg>
